<?xml version="1.0" encoding="iso-8859-1"?>
<!-- Generator: Adobe Illustrator 19.0.0, SVG Export Plug-In . SVG Version: 6.00 Build 0)  -->
<svg version="1.1" id="Capa_1" xmlns="http://www.w3.org/2000/svg" xmlns:xlink="http://www.w3.org/1999/xlink" x="0px" y="0px"
	 viewBox="0 0 512 512" style="enable-background:new 0 0 2048 2048; stroke: black; stroke-width: 0;" xml:space="preserve">
<g>
	<g>
		<path d="M475.597,68.267H435.2c-4.71,0-8.533,3.814-8.533,8.533v358.4c0,4.719,3.823,8.533,8.533,8.533h40.397
			c20.07,0,36.403-16.324,36.403-36.395V104.67C512,84.591,495.667,68.267,475.597,68.267z M494.933,407.33
			c0,10.658-8.678,19.337-19.336,19.337h-31.864V85.333h31.864c10.658,0,19.336,8.678,19.336,19.337V407.33z"/>
	</g>
</g>
<g>
	<g>
		<path d="M469.333,221.867c-4.71,0-8.533,3.814-8.533,8.533v51.2c0,4.719,3.823,8.533,8.533,8.533s8.533-3.814,8.533-8.533v-51.2
			C477.867,225.681,474.044,221.867,469.333,221.867z"/>
	</g>
</g>
<g>
	<g>
		<path d="M469.333,145.067c-4.71,0-8.533,3.814-8.533,8.533v34.133c0,4.719,3.823,8.533,8.533,8.533s8.533-3.814,8.533-8.533V153.6
			C477.867,148.881,474.044,145.067,469.333,145.067z"/>
	</g>
</g>
<g>
	<g>
		<path d="M469.333,315.733c-4.71,0-8.533,3.814-8.533,8.533V358.4c0,4.719,3.823,8.533,8.533,8.533s8.533-3.814,8.533-8.533
			v-34.133C477.867,319.548,474.044,315.733,469.333,315.733z"/>
	</g>
</g>
<g>
	<g>
		<path d="M76.8,68.267H36.403C16.333,68.267,0,84.591,0,104.67v302.66c0,20.079,16.333,36.403,36.403,36.403H76.8
			c4.71,0,8.533-3.814,8.533-8.533V76.8C85.333,72.081,81.51,68.267,76.8,68.267z M68.267,426.667H36.403
			c-10.658,0-19.337-8.678-19.337-19.328V104.67c0-10.658,8.678-19.337,19.337-19.337h31.863V426.667z"/>
	</g>
</g>
<g>
	<g>
		<path d="M42.667,204.8c-4.71,0-8.533,3.814-8.533,8.533v85.333c0,4.719,3.823,8.533,8.533,8.533c4.71,0,8.533-3.814,8.533-8.533
			v-85.333C51.2,208.614,47.377,204.8,42.667,204.8z"/>
	</g>
</g>
<g>
	<g>
		<path d="M435.2,68.267H76.8c-4.71,0-8.533,3.814-8.533,8.533v358.4c0,4.719,3.823,8.533,8.533,8.533h358.4
			c4.71,0,8.533-3.814,8.533-8.533V76.8C443.733,72.081,439.91,68.267,435.2,68.267z M426.667,426.667H85.333V85.333h341.333
			V426.667z"/>
	</g>
</g>
<g>
	<g>
		<path d="M401.067,324.267H213.333c-4.71,0-8.533,3.814-8.533,8.533v68.267c0,4.719,3.823,8.533,8.533,8.533h187.733
			c4.71,0,8.533-3.814,8.533-8.533V332.8C409.6,328.081,405.777,324.267,401.067,324.267z M392.533,392.533H221.867v-51.2h170.667
			V392.533z"/>
	</g>
</g>
<g>
	<g>
		<path d="M264.533,358.4h-17.067c-4.71,0-8.533,3.814-8.533,8.533s3.823,8.533,8.533,8.533h17.067c4.71,0,8.533-3.814,8.533-8.533
			S269.244,358.4,264.533,358.4z"/>
	</g>
</g>
<g>
	<g>
		<path d="M366.933,358.4h-17.067c-4.71,0-8.533,3.814-8.533,8.533s3.823,8.533,8.533,8.533h17.067c4.71,0,8.533-3.814,8.533-8.533
			S371.644,358.4,366.933,358.4z"/>
	</g>
</g>
<g>
	<g>
		<path d="M315.733,358.4h-17.067c-4.71,0-8.533,3.814-8.533,8.533s3.823,8.533,8.533,8.533h17.067c4.71,0,8.533-3.814,8.533-8.533
			S320.444,358.4,315.733,358.4z"/>
	</g>
</g>
<g>
	<g>
		<path d="M401.067,102.4H213.333c-4.71,0-8.533,3.814-8.533,8.533V332.8c0,4.719,3.823,8.533,8.533,8.533h187.733
			c4.71,0,8.533-3.814,8.533-8.533V110.933C409.6,106.214,405.777,102.4,401.067,102.4z M392.533,324.267H221.867v-204.8h170.667
			V324.267z"/>
	</g>
</g>
<g>
	<g>
		<path d="M307.2,145.067c-18.825,0-34.133,15.309-34.133,34.133s15.309,34.133,34.133,34.133s34.133-15.309,34.133-34.133
			S326.025,145.067,307.2,145.067z M307.2,196.267c-9.412,0-17.067-7.654-17.067-17.067c0-9.412,7.654-17.067,17.067-17.067
			s17.067,7.654,17.067,17.067C324.267,188.612,316.612,196.267,307.2,196.267z"/>
	</g>
</g>
<g>
	<g>
		<path d="M332.826,238.933h-51.251c-18.807,0-34.108,15.3-34.108,34.108V332.8c0,4.719,3.823,8.533,8.533,8.533
			s8.533-3.814,8.533-8.533v-59.759c0-9.395,7.646-17.041,17.041-17.041h51.251c9.395,0,17.041,7.646,17.041,17.041V332.8
			c0,4.719,3.823,8.533,8.533,8.533s8.533-3.814,8.533-8.533v-59.759C366.933,254.234,351.633,238.933,332.826,238.933z"/>
	</g>
</g>
<g>
	<g>
		<path d="M307.2,281.6c-4.71,0-8.533,3.814-8.533,8.533V332.8c0,4.719,3.823,8.533,8.533,8.533s8.533-3.814,8.533-8.533v-42.667
			C315.733,285.414,311.91,281.6,307.2,281.6z"/>
	</g>
</g>
<g>
	<g>
		<path d="M179.2,247.467h-68.267c-4.71,0-8.533,3.814-8.533,8.533s3.823,8.533,8.533,8.533H179.2c4.71,0,8.533-3.814,8.533-8.533
			S183.91,247.467,179.2,247.467z"/>
	</g>
</g>
<g>
	<g>
		<path d="M179.2,213.333h-68.267c-4.71,0-8.533,3.814-8.533,8.533c0,4.719,3.823,8.533,8.533,8.533H179.2
			c4.71,0,8.533-3.814,8.533-8.533C187.733,217.148,183.91,213.333,179.2,213.333z"/>
	</g>
</g>
<g>
	<g>
		<path d="M179.2,179.2h-68.267c-4.71,0-8.533,3.814-8.533,8.533s3.823,8.533,8.533,8.533H179.2c4.71,0,8.533-3.814,8.533-8.533
			S183.91,179.2,179.2,179.2z"/>
	</g>
</g>
<g>
	<g>
		<path d="M179.2,384h-68.267c-4.71,0-8.533,3.814-8.533,8.533c0,4.719,3.823,8.533,8.533,8.533H179.2
			c4.71,0,8.533-3.814,8.533-8.533C187.733,387.814,183.91,384,179.2,384z"/>
	</g>
</g>
<g>
	<g>
		<path d="M179.2,349.867h-68.267c-4.71,0-8.533,3.814-8.533,8.533s3.823,8.533,8.533,8.533H179.2c4.71,0,8.533-3.814,8.533-8.533
			S183.91,349.867,179.2,349.867z"/>
	</g>
</g>
<g>
	<g>
		<path d="M179.2,315.733h-68.267c-4.71,0-8.533,3.814-8.533,8.533s3.823,8.533,8.533,8.533H179.2c4.71,0,8.533-3.814,8.533-8.533
			S183.91,315.733,179.2,315.733z"/>
	</g>
</g>
<g>
	<g>
		<path d="M179.2,281.6h-68.267c-4.71,0-8.533,3.814-8.533,8.533s3.823,8.533,8.533,8.533H179.2c4.71,0,8.533-3.814,8.533-8.533
			S183.91,281.6,179.2,281.6z"/>
	</g>
</g>
<g>
	<g>
		<path d="M179.2,145.067h-68.267c-4.71,0-8.533,3.814-8.533,8.533s3.823,8.533,8.533,8.533H179.2c4.71,0,8.533-3.814,8.533-8.533
			S183.91,145.067,179.2,145.067z"/>
	</g>
</g>
<g>
	<g>
		<path d="M179.2,110.933h-68.267c-4.71,0-8.533,3.814-8.533,8.533s3.823,8.533,8.533,8.533H179.2c4.71,0,8.533-3.814,8.533-8.533
			S183.91,110.933,179.2,110.933z"/>
	</g>
</g>
<g>
</g>
<g>
</g>
<g>
</g>
<g>
</g>
<g>
</g>
<g>
</g>
<g>
</g>
<g>
</g>
<g>
</g>
<g>
</g>
<g>
</g>
<g>
</g>
<g>
</g>
<g>
</g>
<g>
</g>
</svg>
